<svg width="42" height="42" viewBox="0 0 42 42" fill="none" xmlns="http://www.w3.org/2000/svg">
<path fill-rule="evenodd" clip-rule="evenodd" d="M31.2175 7H10.7826C9.86007 6.99997 9.06419 6.99995 8.4087 7.0535C7.71685 7.11003 7.02871 7.23483 6.36655 7.57222C5.37869 8.07556 4.57555 8.87871 4.07221 9.86656C3.73482 10.5287 3.61002 11.2169 3.5535 11.9087C3.49994 12.5642 3.49997 13.36 3.5 14.2825L3.50004 27.7175C3.50001 28.64 3.49998 29.4358 3.55354 30.0913C3.61007 30.7832 3.73488 31.4713 4.07227 32.1335C4.5756 33.1213 5.37875 33.9245 6.3666 34.4278C7.02876 34.7652 7.71689 34.89 8.40875 34.9465C9.0642 35.0001 9.85998 35 10.7824 35H31.2175C32.1399 35 32.9359 35.0001 33.5914 34.9465C34.2832 34.89 34.9714 34.7652 35.6335 34.4278C36.6214 33.9245 37.4245 33.1213 37.9279 32.1335C38.2653 31.4713 38.3901 30.7832 38.4466 30.0913C38.5002 29.4358 38.5001 28.64 38.5001 27.7175V14.2825C38.5001 13.36 38.5002 12.5642 38.4466 11.9087C38.3901 11.2169 38.2653 10.5287 37.9279 9.86655C37.4245 8.8787 36.6214 8.07556 35.6335 7.57222C34.9714 7.23483 34.2833 7.11003 33.5914 7.0535C32.9359 6.99995 32.14 6.99997 31.2175 7ZM7.95551 10.6907C8.04204 10.6467 8.2183 10.5807 8.69371 10.5419C9.18955 10.5014 9.84103 10.5 10.85 10.5H31.1501C32.1591 10.5 32.8105 10.5014 33.3064 10.5419C33.7818 10.5807 33.9581 10.6467 34.0446 10.6907C34.3739 10.8585 34.6416 11.1262 34.8094 11.4555C34.8534 11.542 34.9194 11.7183 34.9582 12.1937C34.9987 12.6896 35.0001 13.341 35.0001 14.35V14.4887L21.5535 18.9709C21.1943 19.0906 20.8059 19.0906 20.4467 18.9709L7.00001 14.4886L7.00001 14.35C7 13.341 7.00136 12.6896 7.04187 12.1937C7.08071 11.7183 7.14665 11.5421 7.19074 11.4555C7.35852 11.1262 7.62623 10.8585 7.95551 10.6907ZM7.00002 18.178L7.00004 27.65C7.00004 28.659 7.00141 29.3105 7.04192 29.8063C7.08076 30.2817 7.1467 30.458 7.19079 30.5445C7.35856 30.8738 7.62628 31.1415 7.95556 31.3093C8.04209 31.3534 8.21835 31.4193 8.69376 31.4581C9.1896 31.4986 9.84107 31.5 10.85 31.5H31.1501C32.1591 31.5 32.8105 31.4986 33.3064 31.4581C33.7818 31.4193 33.9581 31.3534 34.0446 31.3093C34.3739 31.1415 34.6416 30.8738 34.8094 30.5445C34.8534 30.458 34.9194 30.2817 34.9582 29.8063C34.9987 29.3105 35.0001 28.659 35.0001 27.65V18.178L22.6603 22.2913C21.5827 22.6505 20.4176 22.6505 19.3399 22.2913L7.00002 18.178Z" fill="white"/>
</svg>
