<svg width="12" height="20" viewBox="0 0 12 20" fill="none" xmlns="http://www.w3.org/2000/svg">
<path fill-rule="evenodd" clip-rule="evenodd" d="M11.5467 0.00333309L8.66809 0C5.43673 0 3.34555 1.93333 3.34555 4.92167V7.19167H0.453344C0.202812 7.19167 0 7.375 0 7.6V10.8883C0 11.1133 0.202812 11.295 0.453344 11.295H3.34555V19.5917C3.34555 19.8183 3.55006 20 3.79889 20H7.57392C7.82446 20 8.02556 19.8167 8.02556 19.5917V11.295H11.4103C11.6591 11.295 11.862 11.1117 11.862 10.8883V7.6C11.8616 7.54568 11.8498 7.49202 11.8272 7.4424C11.8046 7.39277 11.7718 7.34826 11.7307 7.31167C11.6431 7.23379 11.5287 7.19095 11.4103 7.19167H8.02727V5.26667C8.02727 4.34167 8.27269 3.87167 9.60886 3.87167H11.5484C11.7972 3.87167 12 3.68833 12 3.46333V0.411667C12 0.186667 11.7972 0.00499976 11.5484 0.00333309H11.5467Z" fill="#F2F2F7"/>
</svg>
