<svg width="19" height="22" viewBox="0 0 19 22" fill="none" xmlns="http://www.w3.org/2000/svg">
<path d="M0.00669209 7.83027C0.00669209 6.79535 0.00669209 5.76219 0.00669209 4.72903C0.00669209 3.98276 0.332315 3.64835 1.07331 3.49698C1.9375 3.32098 2.79993 3.12737 3.64477 2.8792C4.34697 2.69751 5.02739 2.44021 5.67411 2.11181C6.63511 1.58379 7.54507 0.944881 8.45327 0.318296C8.98129 -0.0460383 9.77509 -0.162203 10.333 0.318296C11.375 1.20507 12.5671 1.89831 13.8532 2.36526C14.4798 2.60463 15.1222 2.81231 15.7681 2.99536C16.2786 3.14145 16.8242 3.19073 17.3258 3.34738C18.1583 3.60083 18.8342 3.8754 18.7954 5.03881C18.7391 6.72847 18.7955 8.4199 18.7831 10.1131C18.7903 12.3347 18.0598 14.4958 16.7062 16.2575C16.1782 16.9615 15.6379 17.7025 14.9831 18.2921C14.1436 19.0392 13.2415 19.7129 12.2867 20.3057C11.5384 20.7422 10.749 21.1041 9.92997 21.3863C9.58694 21.4988 9.21696 21.4988 8.87393 21.3863C7.49061 20.9467 6.19499 20.2682 5.04577 19.3816C4.44399 18.9242 3.87578 18.4243 3.34554 17.8856C1.72628 16.1959 0.529436 14.2493 0.142221 11.9136C-0.0126652 10.9966 0.0348498 10.0444 0.00316851 9.10809C-0.00563184 8.68919 0.00669209 8.25973 0.00669209 7.83027ZM17.7359 7.85139C17.7359 6.89744 17.7183 5.94348 17.7359 4.98952C17.7482 4.57063 17.5828 4.4087 17.1867 4.31013C16.0304 4.02148 14.8722 3.72931 13.7388 3.35794C12.3128 2.88294 10.9843 2.15431 9.81732 1.20713C9.52339 0.97304 9.2893 0.870956 8.95488 1.16841C8.52101 1.52672 8.06094 1.85206 7.57852 2.14173C5.74804 3.30689 3.69404 3.8666 1.59428 4.31366C1.02578 4.43686 0.987042 4.4791 0.987042 5.05816C0.987042 6.67039 1.00288 8.28085 0.987042 9.89308C0.948975 11.6998 1.45023 13.4768 2.42679 14.9973C3.16068 16.188 4.08601 17.2495 5.16547 18.139C5.80789 18.6582 6.52776 19.0842 7.20362 19.5647C8.24206 20.3039 9.31571 20.7826 10.5706 20.0804C10.8258 19.9378 11.0986 19.8199 11.3521 19.6808C13.7147 18.4217 15.6284 16.4606 16.8294 14.068C17.4294 12.9036 17.7386 11.6113 17.7306 10.3014C17.7341 9.48826 17.7359 8.66983 17.7359 7.85139Z" fill="white"/>
<path d="M8.27918 12.1969L13.0595 7.50454C13.1088 7.45702 13.151 7.40598 13.2003 7.36022C13.4819 7.09269 13.7512 7.06804 13.9783 7.28453C14.0845 7.39747 14.1436 7.54666 14.1436 7.70167C14.1436 7.85669 14.0845 8.00587 13.9783 8.11881C13.7724 8.34938 13.5488 8.56234 13.3306 8.78059L8.84239 13.2846C8.38829 13.7405 8.16477 13.7369 7.70539 13.274C6.9204 12.4838 6.12133 11.7023 5.3557 10.898C5.20791 10.7395 5.11904 10.5351 5.104 10.3189C5.104 10.1429 5.23779 9.85247 5.36275 9.82079C5.4742 9.79866 5.58906 9.8004 5.69979 9.82588C5.81052 9.85136 5.91459 9.90002 6.00516 9.96864C6.72327 10.6357 7.40266 11.3415 8.09612 12.0332C8.17357 12.1071 8.25806 12.174 8.27918 12.1969Z" fill="white"/>
</svg>
