<svg width="20" height="20" viewBox="0 0 20 20" fill="none" xmlns="http://www.w3.org/2000/svg">
<path fill-rule="evenodd" clip-rule="evenodd" d="M10 0C13.2567 0 13.6433 0.011667 14.93 0.071667C18.235 0.221667 19.78 1.79 19.93 5.07167C19.9883 6.35667 20 6.74333 20 10C20 13.2583 19.9883 13.6433 19.93 14.9283C19.7783 18.2067 18.2383 19.7783 14.93 19.9283C13.6433 19.9883 13.2583 20 10 20C6.74333 20 6.35667 19.9883 5.07167 19.9283C1.75667 19.7783 0.221667 18.2017 0.071667 14.9283C0.011667 13.6417 0 13.2567 0 9.99833C0 6.74167 0.0133337 6.35667 0.071667 5.07C0.221667 1.79 1.76333 0.22 5.07167 0.0699997C6.35833 0.0116664 6.74333 0 10 0ZM10 4.23833C9.24337 4.23833 8.49414 4.38736 7.7951 4.67691C7.09607 4.96646 6.46091 5.39087 5.92589 5.92589C5.39087 6.46091 4.96646 7.09607 4.67691 7.7951C4.38736 8.49414 4.23833 9.24337 4.23833 10C4.23833 10.7566 4.38736 11.5059 4.67691 12.2049C4.96646 12.9039 5.39087 13.5391 5.92589 14.0741C6.46091 14.6091 7.09607 15.0335 7.7951 15.3231C8.49414 15.6126 9.24337 15.7617 10 15.7617C11.5281 15.7617 12.9936 15.1546 14.0741 14.0741C15.1546 12.9936 15.7617 11.5281 15.7617 10C15.7617 8.47191 15.1546 7.00641 14.0741 5.92589C12.9936 4.84536 11.5281 4.23833 10 4.23833ZM10 13.7383C9.50232 13.7488 9.00756 13.6599 8.5447 13.4767C8.08185 13.2935 7.66022 13.0198 7.30453 12.6715C6.94885 12.3233 6.66626 11.9075 6.47334 11.4486C6.28043 10.9897 6.18105 10.497 6.18105 9.99917C6.18105 9.50138 6.28043 9.0086 6.47334 8.54972C6.66626 8.09083 6.94885 7.67508 7.30453 7.32682C7.66022 6.97857 8.08185 6.70482 8.5447 6.52163C9.00756 6.33844 9.50232 6.24949 10 6.26C10.978 6.28065 11.909 6.68367 12.5934 7.38265C13.2778 8.08163 13.6611 9.02093 13.6611 9.99917C13.6611 10.9774 13.2778 11.9167 12.5934 12.6157C11.909 13.3147 10.978 13.7177 10 13.7383ZM15.99 2.66333C15.813 2.66333 15.6378 2.69819 15.4743 2.76591C15.3108 2.83362 15.1623 2.93288 15.0372 3.05801C14.912 3.18313 14.8128 3.33168 14.7451 3.49517C14.6774 3.65865 14.6425 3.83388 14.6425 4.01083C14.6425 4.18779 14.6774 4.36301 14.7451 4.5265C14.8128 4.68999 14.912 4.83853 15.0372 4.96366C15.1623 5.08879 15.3108 5.18804 15.4743 5.25576C15.6378 5.32348 15.813 5.35833 15.99 5.35833C16.3474 5.35833 16.6901 5.21636 16.9428 4.96366C17.1955 4.71095 17.3375 4.36821 17.3375 4.01083C17.3375 3.65345 17.1955 3.31071 16.9428 3.05801C16.6901 2.8053 16.3474 2.66333 15.99 2.66333Z" fill="#994993"/>
</svg>
