<svg width="46" height="42" viewBox="0 0 46 42" fill="none" xmlns="http://www.w3.org/2000/svg">
<path fill-rule="evenodd" clip-rule="evenodd" d="M16.8092 9.73886C15.0261 8.11084 12.0202 8.55622 10.8925 10.6155L10.5919 11.1643C9.45881 13.2335 9.27236 15.6289 10.0736 17.8236C12.6555 24.8956 18.7334 30.4451 26.479 32.8024C28.8827 33.534 31.5062 33.3637 33.7724 32.3292L34.3735 32.0547C36.629 31.0251 37.1168 28.2806 35.3337 26.6525L34.4913 25.8834C33.0363 24.5549 30.6774 24.5549 29.2224 25.8834C27.4942 27.4613 24.854 27.8525 22.6679 26.8545L22.02 26.5587C19.8095 25.5496 18.0171 23.9131 16.9119 21.8948L16.5879 21.3033C15.4949 19.3073 15.9234 16.8967 17.6516 15.3187C19.1066 13.9903 19.1066 11.8365 17.6516 10.508L16.8092 9.73886ZM7.46383 9.05027C9.76167 4.85423 15.8866 3.94672 19.5198 7.26399L20.3622 8.03315C23.3141 10.7284 23.3141 15.0983 20.3622 17.7936C19.8007 18.3063 19.6615 19.0895 20.0166 19.738L20.3405 20.3296C21.0749 21.6705 22.2657 22.7578 23.7343 23.4282L24.3822 23.724C25.0925 24.0483 25.9503 23.9212 26.5118 23.4085C29.4638 20.7132 34.2499 20.7132 37.2018 23.4085L38.0443 24.1777C41.6775 27.4949 40.6835 33.0872 36.0878 35.1852L35.4868 35.4597C32.3112 36.9094 28.635 37.1479 25.2668 36.1228C16.3765 33.4171 9.40038 27.0475 6.43697 18.9304C5.31425 15.8551 5.57551 12.4985 7.16329 9.59909L7.46383 9.05027Z" fill="white"/>
</svg>
