<svg width="32" height="38" viewBox="0 0 32 38" fill="none" xmlns="http://www.w3.org/2000/svg">
<path d="M31 15.2127C30.9099 18.0823 29.9957 20.8735 28.3568 23.2824C27.3655 24.804 26.2947 26.2774 25.1486 27.6968C23.6046 29.6098 21.9557 31.4521 20.3254 33.2885C19.4546 34.2774 18.5282 35.2191 17.6204 36.1727C16.5489 37.2998 15.2212 37.2733 14.1744 36.105C13.3314 35.1662 12.5224 34.195 11.664 33.2679C10.8642 32.3997 9.97801 31.6022 9.1937 30.7134C8.23029 29.6098 7.28233 28.4826 6.41465 27.2995C5.14246 25.5337 3.84559 23.7679 2.76484 21.8785C1.27103 19.2754 0.703275 16.2807 1.1468 13.3439C1.43664 10.9816 2.36675 8.732 3.84559 6.81631C5.95458 4.09404 8.69348 2.19581 12.1827 1.40709C13.3814 1.12362 14.6131 0.987143 15.848 1.00095C19.3496 1.07747 22.6659 1.84853 25.3616 4.11758C27.9029 6.25419 29.8976 8.77339 30.5492 12.046C30.7561 13.0966 30.8549 14.1591 31 15.2127ZM16.0085 35.5899C16.1595 35.3274 16.3287 35.0747 16.515 34.8336C17.642 33.6181 18.8 32.4292 19.9116 31.2019C22.4498 28.4061 24.9293 25.5632 26.8283 22.317C27.4737 21.2134 28.1993 20.1157 28.6007 18.9267C29.3195 16.8402 29.4114 14.6036 28.8663 12.4698C28.4197 10.6549 27.5567 8.95685 26.3393 7.49781C25.1219 6.03876 23.5804 4.85496 21.8256 4.03155C20.0709 3.20813 18.1465 2.76556 16.1908 2.73565C14.2352 2.70575 12.2969 3.08925 10.5153 3.85859C8.6626 4.66203 6.95195 5.71268 5.67976 7.39019C4.3242 9.15598 3.29285 11.0189 2.9254 13.1849C2.57804 15.1066 2.75129 17.0809 3.42872 18.9208C4.37359 21.4606 5.92678 23.6708 7.54171 25.8457C8.38161 26.9787 9.20297 28.1265 10.1139 29.2037C11.0248 30.2808 12.0901 31.3197 13.072 32.385C13.986 33.3739 14.8877 34.3598 16.0085 35.5899Z" fill="white" stroke="white" stroke-miterlimit="10"/>
<path d="M15.8814 21.7268C12.2714 21.7658 8.94329 18.63 9.07974 15.1267C9.23695 11.1471 12.2477 8.55997 16.0119 8.63795C19.6604 8.71314 22.8344 11.1137 22.9204 15.1851C23.0005 18.8166 19.7732 21.7602 15.8814 21.7268ZM10.7646 15.355C10.7646 18.0424 13.1376 20.0586 16.0179 20.0893C17.398 20.0739 18.7163 19.5495 19.6881 18.6294C20.6599 17.7092 21.2072 16.467 21.2118 15.1712C21.1954 13.8861 20.6405 12.6588 19.6673 11.755C18.6941 10.8512 17.3808 10.3436 16.0119 10.3423C12.835 10.3423 10.554 12.8793 10.7646 15.355Z" fill="white" stroke="white" stroke-miterlimit="10"/>
</svg>
