<svg width="19" height="24" viewBox="0 0 19 24" fill="none" xmlns="http://www.w3.org/2000/svg">
<path d="M18 9.51849C17.9489 11.2385 17.4309 12.9114 16.5022 14.3551C15.9404 15.2672 15.3337 16.1502 14.6842 17.001C13.8093 18.1475 12.8749 19.2517 11.951 20.3524C11.4576 20.9451 10.9327 21.5095 10.4182 22.081C9.81106 22.7566 9.05865 22.7408 8.46548 22.0405C7.98779 21.4778 7.52935 20.8957 7.04291 20.3401C6.58972 19.8197 6.08754 19.3417 5.6431 18.809C5.09717 18.1475 4.55999 17.4719 4.0683 16.7629C3.34739 15.7045 2.6125 14.6462 2.00008 13.5137C1.15359 11.9535 0.831856 10.1586 1.08319 8.3984C1.24743 6.98258 1.77449 5.63424 2.6125 4.48606C3.80759 2.85444 5.35964 1.71672 7.33688 1.24399C8.01612 1.0741 8.71408 0.992294 9.41386 1.00057C11.3981 1.04643 13.2774 1.50858 14.8049 2.86855C16.245 4.14915 17.3753 5.65905 17.7445 7.62052C17.8618 8.25024 17.9178 8.88701 18 9.51849ZM9.50484 21.7318C9.59038 21.5744 9.68625 21.423 9.79181 21.2785C10.4305 20.55 11.0866 19.8374 11.7166 19.1018C13.1549 17.4261 14.5599 15.7222 15.6361 13.7766C16.0018 13.1151 16.413 12.4572 16.6404 11.7445C17.0477 10.4939 17.0998 9.15342 16.7909 7.87452C16.5378 6.78674 16.0488 5.76901 15.3589 4.89452C14.6691 4.02003 13.7955 3.31051 12.8012 2.81699C11.8068 2.32346 10.7163 2.0582 9.60813 2.04028C8.49993 2.02236 7.40156 2.25221 6.392 2.71332C5.34214 3.19487 4.37277 3.82459 3.65186 4.83001C2.88371 5.88836 2.29928 7.00491 2.09106 8.30315C1.89422 9.45489 1.9924 10.6382 2.37627 11.741C2.9117 13.2633 3.79184 14.588 4.70697 15.8915C5.18291 16.5706 5.64835 17.2585 6.16453 17.9041C6.68072 18.5497 7.28439 19.1724 7.84082 19.8109C8.35875 20.4036 8.86968 20.9945 9.50484 21.7318Z" fill="white" stroke="white" stroke-miterlimit="10"/>
<path d="M9.43372 13.4228C7.38808 13.4462 5.50213 11.5668 5.57945 9.467C5.66853 7.08182 7.37463 5.5312 9.50768 5.57793C11.5752 5.623 13.3737 7.06179 13.4225 9.50206C13.4679 11.6786 11.639 13.4429 9.43372 13.4228ZM6.53419 9.60387C6.53419 11.2146 7.8789 12.423 9.51105 12.4414C10.2931 12.4322 11.0402 12.1179 11.5909 11.5664C12.1416 11.0149 12.4517 10.2704 12.4543 9.49371C12.445 8.72347 12.1306 7.98787 11.5791 7.44616C11.0276 6.90446 10.2834 6.60026 9.50768 6.59944C7.70745 6.59944 6.41485 8.12002 6.53419 9.60387Z" fill="white" stroke="white" stroke-miterlimit="10"/>
</svg>
