<svg width="24" height="24" viewBox="0 0 24 24" fill="none" xmlns="http://www.w3.org/2000/svg">
<path d="M11.3372 3.00162H19.8676C20.4469 3.00162 20.6389 3.19039 20.6389 3.76318V20.6805C20.6389 21.2952 20.4775 21.4582 19.8547 21.4582H2.71638C2.18555 21.4582 2 21.2758 2 20.7531C2 15.0661 2 9.37807 2 3.68895C2 3.19362 2.19685 3.00161 2.69702 3L11.3372 3.00162ZM2.98745 10.3752H7.64072C7.90049 10.3752 8.16025 10.3607 8.4168 10.3833C8.53929 10.389 8.65505 10.4409 8.7407 10.5287C8.82636 10.6164 8.87552 10.7334 8.87825 10.856C8.90568 11.1255 8.73304 11.29 8.4765 11.3497C8.37938 11.3649 8.28083 11.3686 8.18284 11.361H3.30853C3.20204 11.361 3.09716 11.3723 2.98583 11.3788V20.4933H10.9048C10.9258 20.4659 10.9387 20.4562 10.9387 20.4481C10.9387 19.8205 10.9387 19.1928 10.9483 18.5652C10.9483 18.1392 11.1097 17.9343 11.4421 17.9198C11.7744 17.9053 11.9261 18.0957 11.9261 18.5475C11.9261 19.1928 11.9261 19.8382 11.9261 20.4836H19.6434V14.1911H11.9164C11.9164 14.6493 11.9164 15.0898 11.9164 15.5303C11.9164 15.8239 11.6341 16.1159 11.3695 16.0805C11.0645 16.0385 10.95 15.8287 10.9532 15.5319C10.9532 15.0026 10.9532 14.4734 10.9532 13.9442C10.9532 13.3521 11.1 13.2036 11.6905 13.2036H19.6514V3.97454H11.9245V4.47471C11.9245 6.62602 11.9245 8.78055 11.9245 10.9383C11.9245 11.2965 11.7438 11.5062 11.4405 11.5062C11.1371 11.5062 10.9564 11.2965 10.9467 10.9399C10.9467 10.8786 10.9467 10.8173 10.9467 10.756C10.9467 8.62619 10.9467 6.4964 10.9467 4.36661V3.97131H2.98422L2.98745 10.3752Z" fill="white"/>
</svg>
