<svg width="20" height="20" viewBox="0 0 20 20" fill="none" xmlns="http://www.w3.org/2000/svg">
<g clip-path="url(#clip0_81_393)">
<path d="M18 20H2C0.893333 20 0 19.1625 0 18.125V1.875C0 0.8375 0.893333 0 2 0H18C19.1067 0 20 0.8375 20 1.875V18.125C20 19.1625 19.1067 20 18 20ZM2 1.25C1.62667 1.25 1.33333 1.525 1.33333 1.875V18.125C1.33333 18.475 1.62667 18.75 2 18.75H18C18.3733 18.75 18.6667 18.475 18.6667 18.125V1.875C18.6667 1.525 18.3733 1.25 18 1.25H2Z" fill="white"/>
<path d="M9.3335 0.774902H10.6668V19.2124H9.3335V0.774902Z" fill="white"/>
<path d="M0.506836 6.25H19.3335V7.5H0.506836V6.25ZM0.666836 12.4875H19.3335V13.7375H0.666836V12.4875Z" fill="white"/>
</g>
<defs>
<clipPath id="clip0_81_393">
<rect width="20" height="20" fill="white"/>
</clipPath>
</defs>
</svg>
