<svg width="20" height="20" viewBox="0 0 20 20" fill="none" xmlns="http://www.w3.org/2000/svg">
<path d="M16.4706 0V1.17647H14.1176V0H16.4706ZM11.7647 18.8235V20H8.23529V18.8235H9.41177V10.5882H1.17647V11.7647H0V8.23529H1.17647V9.41177H9.41177V1.17647H8.23529V0H11.7647V1.17647H10.5882V9.41177H18.8235V8.23529H20V11.7647H18.8235V10.5882H10.5882V18.8235H11.7647ZM16.4706 18.8235V20H14.1176V18.8235H16.4706ZM1.17647 20H0V18.8235H1.17647V20ZM3.52941 20V18.8235H5.88235V20H3.52941ZM1.17647 5.88235H0V3.52941H1.17647V5.88235ZM1.17647 16.4706H0V14.1176H1.17647V16.4706ZM5.88235 0V1.17647H3.52941V0H5.88235ZM1.17647 1.17647H0V0H1.17647V1.17647ZM18.8235 20V18.8235H20V20H18.8235ZM18.8235 5.88235V3.52941H20V5.88235H18.8235ZM18.8235 16.4706V14.1176H20V16.4706H18.8235ZM18.8235 1.17647V0H20V1.17647H18.8235Z" fill="white"/>
</svg>
