<svg width="40" height="39" viewBox="0 0 40 39" fill="none" xmlns="http://www.w3.org/2000/svg">
<path d="M20 4.46716C12.8672 4.46716 7.14159 6.94316 2.83359 10.3176C1.77519 11.1472 1.56159 12.6176 2.21199 13.7552L3.30239 15.664C4.18479 17.208 6.22879 17.52 7.63599 16.5232C10.9528 14.172 15.1824 12.2768 19.9992 12.2768C24.816 12.2768 29.0464 14.1728 32.3632 16.5232C33.7696 17.52 35.8136 17.208 36.696 15.664L37.7872 13.7552C38.4368 12.6176 38.224 11.1472 37.1656 10.3176C32.856 6.94396 27.1328 4.46716 20 4.46716ZM19.968 28.1232C18.9324 28.1234 17.9393 28.535 17.2071 29.2674C16.475 29.9999 16.0638 30.9931 16.064 32.0288C16.0642 33.0644 16.4758 34.0575 17.2082 34.7896C17.9407 35.5218 18.934 35.933 19.9696 35.9328C21.0052 35.9326 21.9983 35.521 22.7305 34.7885C23.4626 34.0561 23.8738 33.0628 23.8736 32.0272C23.8734 30.9915 23.4618 29.9984 22.7293 29.2663C21.9969 28.5341 21.0036 28.123 19.968 28.1232Z" fill="#FFCD0F"/>
<path d="M20.0001 16.7328C15.5961 16.7328 12.5441 17.9528 10.0001 19.8792C8.87212 20.7328 8.72972 22.3008 9.48332 23.4312L10.5513 25.0336C11.3801 26.2776 13.0833 26.4288 14.2745 25.692C15.7673 24.7688 17.7481 23.9776 20.0001 23.9776C22.2521 23.9776 24.2321 24.7688 25.7249 25.692C26.9169 26.428 28.6193 26.2776 29.4489 25.0336L30.5161 23.432C31.2705 22.3008 31.1273 20.7328 30.0001 19.8792C27.4553 17.9528 24.4033 16.7328 20.0001 16.7328Z" fill="#FFCD0F"/>
</svg>
