<svg width="31" height="33" viewBox="0 0 31 33" fill="none" xmlns="http://www.w3.org/2000/svg">
<path d="M6.3999 6.37773V8.72303H8.3999V6.37773C8.3999 5.23737 8.86347 4.14372 9.68863 3.33737C10.5138 2.53102 11.6329 2.07801 12.7999 2.07801C13.9669 2.07801 15.086 2.53102 15.9112 3.33737C16.7363 4.14372 17.1999 5.23737 17.1999 6.37773V8.72303H19.1999V6.37773C19.1999 4.71903 18.5256 3.12827 17.3254 1.95539C16.1252 0.782512 14.4973 0.123596 12.7999 0.123596C11.1025 0.123596 9.47465 0.782512 8.27442 1.95539C7.07419 3.12827 6.3999 4.71903 6.3999 6.37773Z" fill="url(#paint0_linear_27_24)"/>
<path d="M25.6 12.8273C25.6 11.5315 25.0732 10.2887 24.1355 9.37237C23.1979 8.45606 21.9261 7.94128 20.6 7.94128H5C3.67392 7.94128 2.40215 8.45606 1.46447 9.37237C0.526784 10.2887 0 11.5315 0 12.8273V24.9447C0 26.2406 0.526784 27.4833 1.46447 28.3997C2.40215 29.316 3.67392 29.8307 5 29.8307H20.6C21.9261 29.8307 23.1979 29.316 24.1355 28.3997C25.0732 27.4833 25.6 26.2406 25.6 24.9447V12.8273Z" fill="url(#paint1_linear_27_24)"/>
<path d="M15.2004 18.8859C15.2004 19.508 14.9475 20.1045 14.4974 20.5443C14.0474 20.9842 13.4369 21.2312 12.8004 21.2312C12.1639 21.2312 11.5534 20.9842 11.1033 20.5443C10.6532 20.1045 10.4004 19.508 10.4004 18.8859C10.4004 18.2639 10.6532 17.6674 11.1033 17.2276C11.5534 16.7877 12.1639 16.5406 12.8004 16.5406C13.4369 16.5406 14.0474 16.7877 14.4974 17.2276C14.9475 17.6674 15.2004 18.2639 15.2004 18.8859Z" fill="url(#paint2_radial_27_24)"/>
<path d="M25.6 12.8273C25.6 11.5315 25.0732 10.2887 24.1355 9.37237C23.1979 8.45606 21.9261 7.94128 20.6 7.94128H5C3.67392 7.94128 2.40215 8.45606 1.46447 9.37237C0.526784 10.2887 0 11.5315 0 12.8273V24.9447C0 26.2406 0.526784 27.4833 1.46447 28.3997C2.40215 29.316 3.67392 29.8307 5 29.8307H20.6C21.9261 29.8307 23.1979 29.316 24.1355 28.3997C25.0732 27.4833 25.6 26.2406 25.6 24.9447V12.8273Z" fill="url(#paint3_radial_27_24)"/>
<path d="M26.8447 17.9268C26.0743 17.7014 25.3296 17.3993 24.6223 17.0254C23.9873 16.6902 23.3782 16.31 22.7999 15.8879C22.6842 15.8041 22.5439 15.7589 22.3999 15.7589C22.2559 15.7589 22.1156 15.8041 21.9999 15.8879C19.7399 17.5273 17.4343 18.3388 15.0663 18.3388C14.8905 18.3381 14.7216 18.4057 14.5966 18.5266C14.4717 18.6475 14.401 18.8119 14.3999 18.9837V23.4984C14.4004 24.9129 14.6831 26.2028 15.2479 27.3682C15.6308 28.1536 16.1324 28.8783 16.7359 29.518C18.0207 30.8939 19.8319 32.0275 22.1559 32.9132C22.3128 32.973 22.487 32.973 22.6439 32.9132C27.7711 30.9588 30.3999 27.7981 30.3999 23.4984V18.9837C30.3988 18.8119 30.3281 18.6475 30.2032 18.5266C30.0782 18.4057 29.9093 18.3381 29.7335 18.3388C28.7602 18.3388 27.7972 18.2014 26.8447 17.9268Z" fill="url(#paint4_linear_27_24)"/>
<defs>
<linearGradient id="paint0_linear_27_24" x1="9.1431" y1="-1.51889" x2="18.6091" y2="14.4771" gradientUnits="userSpaceOnUse">
<stop stop-color="#FFC205"/>
<stop offset="1" stop-color="#FB5937"/>
</linearGradient>
<linearGradient id="paint1_linear_27_24" x1="27.4288" y1="31.1988" x2="4.56825" y2="9.4137" gradientUnits="userSpaceOnUse">
<stop stop-color="#FF6F47"/>
<stop offset="1" stop-color="#FFCD0F"/>
</linearGradient>
<radialGradient id="paint2_radial_27_24" cx="0" cy="0" r="1" gradientUnits="userSpaceOnUse" gradientTransform="translate(14.0003 21.2318) rotate(-106.297) scale(8.55223 12.0998)">
<stop stop-color="#944600"/>
<stop offset="1" stop-color="#CD8E02"/>
</radialGradient>
<radialGradient id="paint3_radial_27_24" cx="0" cy="0" r="1" gradientUnits="userSpaceOnUse" gradientTransform="translate(21.0288 25.2707) rotate(151.004) scale(9.40775 10.1846)">
<stop stop-color="#EB4824"/>
<stop offset="0.99" stop-color="#EB4824" stop-opacity="0"/>
</radialGradient>
<linearGradient id="paint4_linear_27_24" x1="17.3999" y1="15.7589" x2="30.0449" y2="32.6374" gradientUnits="userSpaceOnUse">
<stop stop-color="#62BE55"/>
<stop offset="1" stop-color="#1E794A"/>
</linearGradient>
</defs>
</svg>
