<svg width="48" height="48" viewBox="0 0 48 48" fill="none" xmlns="http://www.w3.org/2000/svg">
<g clip-path="url(#clip0_201_205)">
<path d="M33 42L42 33V16.5L24 13.5L6 16.5V34.5C6 36.4891 6.79018 38.3968 8.1967 39.8033C9.60322 41.2098 11.5109 42 13.5 42H33Z" fill="url(#paint0_linear_201_205)"/>
<path d="M33 42L42 33V16.5L24 13.5L6 16.5V34.5C6 36.4891 6.79018 38.3968 8.1967 39.8033C9.60322 41.2098 11.5109 42 13.5 42H33Z" fill="url(#paint1_linear_201_205)"/>
<path d="M33 42L42 33V16.5L24 13.5L6 16.5V34.5C6 36.4891 6.79018 38.3968 8.1967 39.8033C9.60322 41.2098 11.5109 42 13.5 42H33Z" fill="url(#paint2_radial_201_205)" fill-opacity="0.3"/>
<g filter="url(#filter0_d_201_205)">
<path d="M15.744 26.991C16.3396 26.991 16.9107 26.7544 17.3318 26.3333C17.753 25.9122 17.9895 25.341 17.9895 24.7455C17.9895 24.15 17.753 23.5788 17.3318 23.1577C16.9107 22.7366 16.3396 22.5 15.744 22.5C15.1485 22.5 14.5773 22.7366 14.1562 23.1577C13.7351 23.5788 13.4985 24.15 13.4985 24.7455C13.4985 25.341 13.7351 25.9122 14.1562 26.3333C14.5773 26.7544 15.1485 26.991 15.744 26.991ZM17.991 32.247C17.991 32.8425 17.7545 33.4137 17.3333 33.8348C16.9122 34.2559 16.3411 34.4925 15.7455 34.4925C15.15 34.4925 14.5788 34.2559 14.1577 33.8348C13.7366 33.4137 13.5 32.8425 13.5 32.247C13.5 31.6515 13.7366 31.0803 14.1577 30.6592C14.5788 30.2381 15.15 30.0015 15.7455 30.0015C16.3411 30.0015 16.9122 30.2381 17.3333 30.6592C17.7545 31.0803 17.991 31.6515 17.991 32.247ZM24 26.991C24.5956 26.991 25.1667 26.7544 25.5878 26.3333C26.009 25.9122 26.2455 25.341 26.2455 24.7455C26.2455 24.15 26.009 23.5788 25.5878 23.1577C25.1667 22.7366 24.5956 22.5 24 22.5C23.4045 22.5 22.8333 22.7366 22.4122 23.1577C21.9911 23.5788 21.7545 24.15 21.7545 24.7455C21.7545 25.341 21.9911 25.9122 22.4122 26.3333C22.8333 26.7544 23.4045 26.991 24 26.991ZM26.247 32.247C26.247 32.8425 26.0105 33.4137 25.5893 33.8348C25.1682 34.2559 24.5971 34.4925 24.0015 34.4925C23.406 34.4925 22.8348 34.2559 22.4137 33.8348C21.9926 33.4137 21.756 32.8425 21.756 32.247C21.756 31.6515 21.9926 31.0803 22.4137 30.6592C22.8348 30.2381 23.406 30.0015 24.0015 30.0015C24.5971 30.0015 25.1682 30.2381 25.5893 30.6592C26.0105 31.0803 26.247 31.6515 26.247 32.247ZM32.247 26.991C32.8426 26.991 33.4137 26.7544 33.8348 26.3333C34.256 25.9122 34.4925 25.341 34.4925 24.7455C34.4925 24.15 34.256 23.5788 33.8348 23.1577C33.4137 22.7366 32.8426 22.5 32.247 22.5C31.6515 22.5 31.0803 22.7366 30.6592 23.1577C30.2381 23.5788 30.0015 24.15 30.0015 24.7455C30.0015 25.341 30.2381 25.9122 30.6592 26.3333C31.0803 26.7544 31.6515 26.991 32.247 26.991Z" fill="url(#paint3_linear_201_205)"/>
</g>
<path d="M42 13.5C42 11.5109 41.2098 9.60322 39.8033 8.1967C38.3968 6.79018 36.4891 6 34.5 6H13.5C11.5109 6 9.60322 6.79018 8.1967 8.1967C6.79018 9.60322 6 11.5109 6 13.5V18H42V13.5Z" fill="url(#paint4_linear_201_205)"/>
<path d="M34.0559 27H41.9759V34.938L31.8629 45.066C31.0186 45.9101 29.961 46.5094 28.8029 46.8L24.3149 47.925C23.868 48.0359 23.3999 48.0294 22.9562 47.906C22.5126 47.7826 22.1083 47.5465 21.7829 47.2207C21.4574 46.895 21.2217 46.4905 21.0987 46.0467C20.9757 45.6029 20.9696 45.1349 21.0809 44.688L22.2029 40.194C22.493 39.0349 23.0923 37.9762 23.9369 37.131L34.0559 27Z" fill="url(#paint5_linear_201_205)"/>
<path d="M31.4549 45.429C30.6861 46.0782 29.779 46.5431 28.8029 46.788L24.3149 47.913C23.868 48.0239 23.3999 48.0174 22.9562 47.894C22.5126 47.7706 22.1083 47.5345 21.7829 47.2087C21.4574 46.8829 21.2217 46.4785 21.0987 46.0347C20.9757 45.5909 20.9696 45.1228 21.0809 44.676L22.2029 40.182C22.4429 39.228 22.8899 38.343 23.5109 37.59C23.9643 39.5112 24.9501 41.2658 26.3552 42.6523C27.7603 44.0388 29.5278 45.0012 31.4549 45.429Z" fill="url(#paint6_linear_201_205)"/>
<path d="M34.6201 26.4599L38.4331 22.6439C39.4968 21.6522 40.904 21.1122 42.3581 21.1378C43.8121 21.1635 45.1994 21.7529 46.2274 22.7816C47.2553 23.8103 47.8436 25.1981 47.8682 26.6522C47.8928 28.1062 47.3517 29.5131 46.3591 30.5759L42.8371 34.1009L34.6201 26.4599Z" fill="url(#paint7_linear_201_205)"/>
<path d="M45.0059 31.941C43.0602 31.5105 41.2772 30.5351 39.8652 29.129C38.4532 27.7228 37.4705 25.9439 37.0319 24L34.0349 27C34.4735 28.9439 35.4562 30.7228 36.8682 32.129C38.2802 33.5351 40.0632 34.5105 42.0089 34.941L45.0059 31.941Z" fill="url(#paint8_linear_201_205)"/>
</g>
<defs>
<filter id="filter0_d_201_205" x="12.1645" y="21.833" width="23.6619" height="14.6606" filterUnits="userSpaceOnUse" color-interpolation-filters="sRGB">
<feFlood flood-opacity="0" result="BackgroundImageFix"/>
<feColorMatrix in="SourceAlpha" type="matrix" values="0 0 0 0 0 0 0 0 0 0 0 0 0 0 0 0 0 0 127 0" result="hardAlpha"/>
<feOffset dy="0.667"/>
<feGaussianBlur stdDeviation="0.667"/>
<feColorMatrix type="matrix" values="0 0 0 0 0.1242 0 0 0 0 0.323337 0 0 0 0 0.7958 0 0 0 0.32 0"/>
<feBlend mode="normal" in2="BackgroundImageFix" result="effect1_dropShadow_201_205"/>
<feBlend mode="normal" in="SourceGraphic" in2="effect1_dropShadow_201_205" result="shape"/>
</filter>
<linearGradient id="paint0_linear_201_205" x1="30.501" y1="45.501" x2="20.001" y2="15" gradientUnits="userSpaceOnUse">
<stop stop-color="#B3E0FF"/>
<stop offset="1" stop-color="#B3E0FF"/>
</linearGradient>
<linearGradient id="paint1_linear_201_205" x1="27.858" y1="25.158" x2="33.075" y2="48.462" gradientUnits="userSpaceOnUse">
<stop stop-color="#DCF8FF" stop-opacity="0"/>
<stop offset="1" stop-color="#FF6CE8" stop-opacity="0.7"/>
</linearGradient>
<radialGradient id="paint2_radial_201_205" cx="0" cy="0" r="1" gradientUnits="userSpaceOnUse" gradientTransform="translate(34.5 36) rotate(135) scale(21.2132 9.81705)">
<stop offset="0.535" stop-color="#4A43CB"/>
<stop offset="1" stop-color="#4A43CB" stop-opacity="0"/>
</radialGradient>
<linearGradient id="paint3_linear_201_205" x1="22.086" y1="21.117" x2="25.698" y2="45.129" gradientUnits="userSpaceOnUse">
<stop stop-color="#0078D4"/>
<stop offset="1" stop-color="#0067BF"/>
</linearGradient>
<linearGradient id="paint4_linear_201_205" x1="6" y1="6" x2="37.656" y2="-2.517" gradientUnits="userSpaceOnUse">
<stop stop-color="#0094F0"/>
<stop offset="1" stop-color="#2764E7"/>
</linearGradient>
<linearGradient id="paint5_linear_201_205" x1="26.5649" y1="32.154" x2="36.8579" y2="42.447" gradientUnits="userSpaceOnUse">
<stop stop-color="#FFA43D"/>
<stop offset="1" stop-color="#FB5937"/>
</linearGradient>
<linearGradient id="paint6_linear_201_205" x1="19.5029" y1="40.488" x2="27.0029" y2="47.979" gradientUnits="userSpaceOnUse">
<stop offset="0.255" stop-color="#FFD394"/>
<stop offset="1" stop-color="#FF921F"/>
</linearGradient>
<linearGradient id="paint7_linear_201_205" x1="45.2011" y1="23.7269" x2="40.3651" y2="28.3679" gradientUnits="userSpaceOnUse">
<stop stop-color="#F97DBD"/>
<stop offset="1" stop-color="#DD3CE2"/>
</linearGradient>
<linearGradient id="paint8_linear_201_205" x1="39.7079" y1="31.488" x2="31.9649" y2="28.092" gradientUnits="userSpaceOnUse">
<stop stop-color="#FF921F"/>
<stop offset="1" stop-color="#FFE994"/>
</linearGradient>
<clipPath id="clip0_201_205">
<rect width="48" height="48" fill="white"/>
</clipPath>
</defs>
</svg>
